<svg version="1.1" id="Layer_1" xmlns="http://www.w3.org/2000/svg" xmlns:xlink="http://www.w3.org/1999/xlink" x="0px" y="0px"
   viewBox="0 -50 400 200" enable-background="new 0 -50 400 200" xml:space="preserve">
<circle fill="#FFD466" cx="200" cy="50" r="90"/>
<path fill="#FFFFFF" d="M262,32.9l-6.7-6.9c-1.4-1.4-3.6-1.4-5-0.1l-2.8,2.8l-14.6-15c-7-7.2-20.3-18.5-30.1-16.4
  c-1.6,0.3-5.6,3.1-5.6,3.1l19,19.5l-26.3,25.6l-1.5-1.6c-1.4-1.4-3.6-1.4-5-0.1l-39.3,38.3c-1.4,1.4-1.4,3.6-0.1,5l14.4,14.8
  c1.4,1.4,3.6,1.4,5,0.1l39.3-38.3c1.4-1.4,1.4-3.6,0.1-5l-1.5-1.6l26.3-25.6l8.3,8.5l-2.8,2.8c-1.4,1.4-1.4,3.6-0.1,5l6.7,6.9
  c1.4,1.4,3.6,1.4,5,0.1l17.3-16.9C263.3,36.5,263.4,34.3,262,32.9z"/>
</svg>